<?xml version="1.0" encoding="UTF-8"?><svg id="_레이어_2" xmlns="http://www.w3.org/2000/svg" viewBox="0 0 277.72 315.56"><defs><style>.cls-1{fill:#8b7a70;}.cls-2{fill:#613d31;}.cls-3{fill:#376943;}.cls-4{fill:#49413d;}</style></defs><g id="_레이어_1-2"><path class="cls-1" d="M74.84,245.88c4.03-.23,8.01-1.12,11.55-3,4.68-2.5,8.5-6.93,9.42-12.15.92-5.23-1.51-11.1-6.27-13.46,4.66.4,7.14,5.55,8.7,9.96,1.3-1.47,3.3-2.04,5.04-2.93,1.74-.89,3.46-2.53,3.21-4.48-.17-1.31-1.07-3,.06-3.7.47,5.26,1.53,10.47,3.17,15.5-.03-.09,4.73-3.5,5.18-3.88,1.23-1.06,3.19-2.25,3.06-4.03-.16-2.29-.63-4.46-.55-6.79s.45-4.64,1.09-6.87c1.23-4.3,3.47-8.32,4.07-12.75,1.2-8.86-4.28-17.14-6-25.92-.69-3.53-.73-7.35.96-10.52,1.91-3.6,5.71-5.81,7.96-9.21,2.46-3.71,2.76-8.74.77-12.72-.35-.71-.81-1.42-1.53-1.75-.91-.43-2-.13-2.9.31-2.69,1.33-4.8,3.97-7.77,4.35-1.29.16-2.59-.14-3.88-.29-5.63-.66-11.53,1.7-15.15,6.07-3.85,4.65-4.96,10.93-5.86,16.9-.18,1.17-.34,2.4.08,3.51.39,1.01,1.23,1.78,2.09,2.42,3.1,2.3,6.98,3.5,10.83,3.37,1.22-.04,2.51-.25,3.43-1.06,1.69-1.49,1.34-4.19.63-6.33-1-3-2.43-5.85-4.24-8.45,2.28,1.75,4.12,4.07,5.31,6.68,1.04,2.28,1.56,5.01.45,7.25-1.27,2.56-4.39,3.76-7.24,3.62-2.85-.14-5.52-1.36-8.11-2.57-2.13,13.82-12.5,24.69-22.21,34.75-3.53,3.66-7.08,7.39-9.58,11.82-2.51,4.42-3.91,9.68-2.81,14.65-5.63-1.47-10.28-5.74-13.07-10.85s-3.88-11-4.12-16.81c-4.72,8.72-2.56,20.17,3.9,27.69,6.46,7.52,16.52,11.33,26.42,11.71,1.29.05,2.59.04,3.89-.03Z"/><path class="cls-2" d="M227.53,136.94c-7.3-2.87-14-2.25-21.22.39,2.47-8.02-2.52-15.43-1.5-23.36.24-1.89,1.77-3.95,1.25-5.96-6.96,8.23-.37,18.06-3.38,26.97-1.02,3.03-3.32,6.31-5.85,8.29-1.17,1.07-2.4,1.98-3.88,2.57-.95.51-1.97.92-3.07,1.2-.77.2-1.54.36-2.31.51-.81.25-1.63.43-2.44.51-.28.13-.57.27-.85.4-1.98,1.39-4.14,2.5-6.52,2.99-1.96.4-3.97.17-5.88.83-2.02.69-3.93,1.67-5.94,2.42-.74.86-1.68,1.29-2.65,1.37l-5.33,3.38c-2.3-15.01-10.49-28.39-9.25-43.97,1.52-19.15,23.83-31.88,41.65-31.64.02-.32-.6-.98-.77-1.02-2-.51-8.68,0-11.32,0-1.47,0-10.05,2.76-11.93,3.5-3.51,1.39-7.26,3.71-10.44,5.76l.12-3.73,2.71-7.58c-2.68,2.46-4.86,6.12-5.8,9.63-.36,1.33.11,2.63-.51,4.12-.61,1.47-3.72,3.72-4.75,5.27-1.13-8.65-1.69-17.26-1.57-26,0-.4,1.05-4.35-.48-2.8-.97.98-2.88,14.45-3.09,16.72-.68,7.3.02,14.52-.53,21.59-.39,5.06-2.33,10.36-1.54,15.7-16.26-12.94-37.17-13.71-48.01-33.5l-3.92-8.16c1.06,14.82,11.56,25.53,23.14,33.43-9.66,1.76-17.79,6.59-27.77,2.06-.29,1.38.37.88,1.01,1.27,2.49,1.51,5.24,2.97,8.24,2.84-3.91,3.24-11.17,3.9-16.07,2.95-2.75-.53-5.08-1.85-7.59-2.95,1.85,3.56,7.81,5.26,11.64,5.59,16.37,1.38,27.6-13.43,44.87-3.21,18.77,11.12,22.55,38.67,18.95,58.41-4.62,25.34-22.88,47.91-47.58,55.8-.65.21-11.55,4.68-13.59,4.76,0,0,0,0,0,0,.1,0,.2.01.3.02,15.21-.04,31.1-1.45,45.88-.48.83.1,1.36-.12,2.05-.52,1.6-.92,6.74-7.03,8.15-8.82,14.6-18.51,17.51-32.38,19.86-55.23,1.92-18.66,17.39-21.56,32.35-26.24.52-.62,1.24-1.1,2.15-1.32.35-.51.72-1,1.15-1.45.83-.87,1.91-1.28,3.01-1.3,8.67-9.02,20.46-14.79,32.83-9.06.99-.98-3.51-2.78-3.98-2.96Z"/><path class="cls-3" d="M110.64,85.38c-1.17.2-.82-.05-1.15-.66-1.15-2.13-1.83-5.11-3.21-7.58-1.83-3.28-4.59-6.57-7.46-9-1.12-.95-3.39-3.03-4.63-2.57,6.18,5.66,11.07,13.07,12.85,21.34-18.36,1.01-30.63-14.84-32.77-31.77-.28-2.23.17-4.41-.53-6.57.19-1.08,3.28-.81,4.26-.77,11.26.55,22.71,5.76,28.42,15.81,1.55,2.73,4.22,9.26,4.22,12.24v9.52Z"/><path class="cls-3" d="M163.62,0v11.06c0,12.82-10.51,26.24-23.12,28.83-.84.17-4.57.96-4.64-.02,1.97-8.05,5.24-15.15,10.79-21.35-.97-.23-1.22.54-1.8,1.02-2.35,1.97-5.16,5.03-6.75,7.65-2.37,3.93-3.3,8.26-5.08,12.4-3.92-13.21,1.85-27.78,13.8-34.55,4.95-2.8,11.2-4.52,16.8-5.06Z"/><path class="cls-3" d="M82.35,82.29c-2.53-1.07-4.57-2.81-7.1-3.95-5.5-2.47-12.13-3.77-18.09-2.73l11.29,2.33c1.53.46,11.76,5.51,11.88,6.17.26,1.49-1.46,2.07-2.44,2.71-15.24,9.94-32.89-.01-42.53-12.76l-.31-1.02c16.3-11.16,34.82-10.08,46.18,7.04.47.71,1.26,1.27,1.13,2.21Z"/><path class="cls-3" d="M129,53.14c1.24,1.1,4.14,4.85,5.21,6.36,8.71,12.26,9.25,26.32-1.2,37.71-1.9-.77-4.86-10.42-5.25-12.75l-1.17-8.33-.46,9.45,3.79,12.67c-16.48-10.29-15.36-33.16-2.06-45.64.42.08.82.24,1.14.53Z"/><path class="cls-3" d="M93.66,111.1c-6.7-5.11-14.48-8.79-23.14-8.22l9.39,2.69c1.9.51,12.05,6.31,11.69,7.84-11.87,7.85-24.09,4.63-34.04-4.4-1.49-1.35-8.44-9.02-7.6-10.22,10.45-5.05,21.02-7.91,31.8-1.75,5.19,2.96,9.74,8.49,11.9,14.07Z"/><path class="cls-3" d="M121.95,50.4c-16.72-5.48-20.46-24.76-14.13-39.6,15.93,5.45,25.17,20.3,18.25,36.78-.35.85-.91,2.66-2.07,2.3v-7.97c0-1.48-3.17-8.68-4.2-10.2-.36-.52-.79-1.23-1.45-1.37.41,2.01,1.63,3.81,2.2,5.77.34,1.17,1.4,4.9,1.4,5.8v8.49Z"/><path class="cls-3" d="M180.07,45.52c-.27,2.03-2.4,7.46-3.37,9.49-.35.72-.48,2.28-1.51,2.08-1.3-.6-4.05-8.37-4.34-10.07-1.84-10.87,2.3-18.71,9.98-25.96.95-.9,4.85-4.57,5.93-3.87.49.32,3.22,6.18,3.6,7.23,4.13,11.17,2.49,21.06-6.43,29.09-.45.41-6.94,5.39-6.44,3.85,2.23-3.94,2.94-8.47,3.6-12.87l-1.03-6.42c-.22,2.36.31,5.17,0,7.46Z"/><path class="cls-3" d="M158.47,66.61c-.14,1.3-2.41,10.02-3.34,10.02-13.55-10.83-10.24-28.49.51-39.98,13.56,9.73,15.71,29.29,2.57,40.5-1.47.25.46-2.83.63-3.49.91-3.61,1.47-7.36,1.12-11.1l-1.48-5.46c-.23,3.06.32,6.51,0,9.52Z"/><path class="cls-3" d="M94,22.3c6.03,5.86,7.74,14.35,6.35,22.45-6.08-2.29-9.82-6.97-13.22-12.24-.64-.99-.66-1.23-.65.13,1.35,4.12,4.06,7.41,7.18,10.32.68.63,5.42,3.45,4.63,4.37-17.28-2.01-25.93-16.9-22.63-33.43,6.15.61,13.87,4.07,18.34,8.41Z"/><path class="cls-3" d="M240.23,69.93c-13.37,7.16-30.55,7.4-38.54-7.43.49-.75.98-.71,1.76-.8,3.05-.33,6.72-.65,9.73-.42,2.22.17,4.28.89,6.36,1.36.51.12,1.81.51,1.68-.39-2.92-.97-5.44-2.04-8.55-2.51-4.08-.61-6.02-.13-9.93.22-.69.06-1.22.75-1.05-.54,9.2-6.99,20.89-7.62,30.07-.25,1.54,1.23,9.5,9.31,8.48,10.77Z"/><path class="cls-3" d="M62.81,115.22c-3.79,4.8-8.94,8.69-14.91,10.29-.12.96,1.03.38,1.56.28,5.81-1.1,10.46-4.92,14.88-8.52-3.98,16.39-20.89,21.3-35.47,14.89,4.68-14,19.54-23.15,33.93-16.94Z"/><path class="cls-3" d="M200.13,62.76c-5.52,13.34-19.06,22.87-33.42,15.68,2.88-3.23,6.26-5.9,10.08-7.91l5.34-2.11c-6.84.21-12.34,4.12-16.97,8.74,3.59-16.24,20.9-21.17,34.97-14.39Z"/><path class="cls-2" d="M153.6,220.18v7.97l1.54,3.34.26-6.17c2.88,4.8,5.63,9.22,10.72,11.91,5.99,3.17,12.01,2.96,18.34,4.8l5.15,2.31h-36.77c-.37,0-5.31-2.64-6.68-3.09-2.13-.71-4.48-.83-6.25-1.48-.57-.21-.86.24-.7-.82,2.88-3.29,5.61-6.83,8.13-10.39,1.63-2.3,3.08-5.53,4.81-7.53.46-.53.49-1.07,1.46-.86Z"/><path class="cls-3" d="M54.58,53.49l8.34,1.69,5.54,2.68c-8.01,7.7-18.11,6.88-26.6.41-4.75-3.61-4.84-4.43.31-7.69,7.39-4.67,17.14-4.55,23.84,1.35.41.36,3.35,3.74,2.97,4.12-1.51-.56-5.61-2.57-6.94-2.57h-7.46Z"/><path class="cls-3" d="M236.14,95.15h-12.6c-4.19,0-10.71-5.83-12.54-9.58-.39-.8-2.56-5.45-.84-5.34l11.06,3.35c-1.2-1.19-2.73-2.24-4.27-2.93-2.28-1.02-6.37-1.04-7.05-2.98-4.49,5.32-10.22,8.32-16.97,4.61l.46-1.29-.97-1c3.55-5.14,8.16-6.76,14.15-4.39,1.35.53,2.71,1.93,4.15,2.06,1.88.17,4.5-1.06,6.56-.99,9.83.37,17.57,9.12,18.85,18.48Z"/><path class="cls-3" d="M248.99,121.39c-4.69,10.55-17.91,17.1-28.29,10.02-.28-1.17,4.72-3.92,5.72-4.56l6.62-2.38c-3.22.09-6.42.8-9.28,2.29-.76.4-4.28,3.19-4.6,2.85,5-12.62,18.82-14.35,29.83-8.22Z"/><path class="cls-3" d="M217.95,37.88c-4.56,4.63-11.55,6.54-17.82,4.8,1.1-4.1,4.76-6.47,7.89-8.81.48-.36,1.61-1.04.09-.94l-4.11,2.58-5.93,5.64c1.66-11.21,10.53-17.9,21.79-16.9.89.08,4.18.44,4.39,1.26-1.02,4.19-3.25,9.28-6.3,12.38Z"/><path class="cls-3" d="M180.59,91.04h8.49c.57,0,3.42,1.89,3.85.52-4.13-1.75-8.4-2.09-12.85-2.32,8.6-6.06,18.32-3.85,24.67,4.12.61.77,3.38,4.73,2.85,5.4-8.96,3.78-18.68,4.11-25.22-4.12-.83-1.05-1.94-2.17-1.8-3.61Z"/><path class="cls-3" d="M71.55,127.56l-7.71,5.91c.54.86,1.12-.22,1.54-.52,2.22-1.56,4.38-3.42,7.2-3.86.77,11.33-8.97,18.34-19.54,18-1.22-11.04,6.99-21.09,18.52-19.54Z"/><path class="cls-3" d="M213.51,126.52c1.65-3.03,3.57-6.12,3.08-9.76l-3.99,8.59-1.14.67c-6.08-10.15-2.21-19.58,6.67-26.23,4.5,6.7,6.85,14.35,1.78,21.57-.65.93-5.5,5.92-6.4,5.17Z"/><path class="cls-3" d="M125.55,108.01l-4.88-6.17,2.94,5.29.4,1.91c-10.72,1.5-17.46-8.22-17.49-18,10.88-1.42,19.43,5.93,19.03,16.97Z"/><path class="cls-3" d="M237.14,43.74c.98,1.43-5.44,6.48-6.82,7.27-4.62,2.65-9.96,2.96-14.41-.18-1.06-.75-2.42-1.82-.36-2.22l5.67-2.83c-2.92-.23-5.13,1.69-7.71,2.56,5.35-9.3,14.93-9.75,23.64-4.6Z"/><path class="cls-3" d="M89.04,130.65l-4.11,5.13,3.6-3.34,1.54-.77c3.37,9.12-3.23,16.63-11.53,19.52-4.26-8.42.66-19.69,10.51-20.55Z"/><path class="cls-3" d="M178.02,11.83c.98,9.1-3.35,16.66-12.61,18.5l-.56-1.05,2.11-6.13-3.34,6.17c-2.72-9.31,5.28-17.72,14.4-17.49Z"/><path class="cls-3" d="M220.71,145.05l5.14,2.05c-.55-1.53-5.27-2.24-4.09-4.07,7.85-3.67,16.71-.93,20.51,6.86-7.33,5.55-17.84,3.96-21.57-4.83Z"/><path class="cls-3" d="M249,101.32c-.51,8.71-6.64,15.57-15.95,13.88l2.32-4.62-3.34,3.59c.55-9.02,8.31-13.91,16.97-12.86Z"/><path class="cls-3" d="M222.25,159.95c-7.71.86-16.78-1.94-17.48-10.8.1-.13,2.87,1.45,3.08,0l-3.08-.77c8.65-3.42,16.6,2.79,17.48,11.57Z"/><path class="cls-3" d="M130.7,20.57v-3.6c-1.11.17-.27,4.78-1.8,4.11-7.01-4.31-8.13-12.7-4.09-19.53,7.45,2.81,11.45,12.66,5.89,19.02Z"/><path class="cls-3" d="M113.54,49.04c2.41,2.49,4.2,7.15,3.78,10.62l-3.08-3.6,2.05,4.63c-9.88.09-13.41-6.92-12.85-15.94,3.32.33,7.76,1.88,10.1,4.3Z"/><path class="cls-3" d="M50.46,92.58l-6.17-1.02,6.16,2.31c-5.23,6.33-13.95,4.12-19.53-.53,3.29-5.33,9.71-7.21,15.46-4.64.66.3,4.96,3.02,4.09,3.88Z"/><path class="cls-3" d="M77.59,43.11c-1.24.06-.26,1.03-1.16,1.58-6.51,3.92-15.25-2.29-17.22-8.69,7.48-2.51,15.87-1.27,18.39,7.11Z"/><path class="cls-3" d="M238.19,137.32l-2.57-.76c5.5-5.86,14.57-5.1,19.53,1.03-4.86,5.22-14.53,7.06-19.01.52l2.05-.78Z"/><path class="cls-3" d="M206.31,47.84c-2.98,6.49-9.9,12.31-16.96,7.96l2.05-2.31-2.57,1.54c1.5-8.27,10.51-10.33,17.48-7.19Z"/><path class="cls-3" d="M141.85,61.03c-1.66,1.47-1.26-.09-1.45-.23-.26-.19-.86.49-1.37.31-.97-.34-3.14-5.61-3.21-6.88-.21-4.03,2.47-8.08,4.93-11.04,5.75,3.95,6.42,13.12,1.1,17.83Z"/><path class="cls-3" d="M243.67,78.9c.65.43,3.8,4.22,3.77,4.68-5.49,4.04-13.56,3.11-16.97-3.08-.11-1.07.05-.68.77-.78,1.5-.21,3.34.16,4.89,0l-5.66-1.03c3.34-3.67,9.47-2.26,13.19.21Z"/><path class="cls-3" d="M41.58,104.02c4.57-.77,10.73,1.58,5.81,6.32-3.78,3.64-9.19,3.52-13.66,1.27,1.16-3.44,4.1-6.96,7.85-7.59Z"/><path class="cls-1" d="M198.74,152.1c-.12-.26-.25-.51-.39-.75-.29-.5-.63-.99-.77-1.54-.25-.97.11-1.98.39-2.94,1.17-4.12.62-8.65-1.37-12.48s-5.36-6.96-9.33-8.88c-2.6-1.25-5.64-2.16-7.17-4.55-1.47-2.29-1.05-5.19-.91-7.87.16-3.14-.14-6.3-.88-9.37-.14-.59-.49-1.31-1.11-1.26-.27.02-.5.2-.71.37-1.01.82-2.01,1.64-3.02,2.46-.36-1.09-1.23-2.02-2.32-2.48l-.46,2.66c-2.62-.46-4.53,2.22-6.85,3.46-.81.43-1.76.74-2.3,1.47-.96,1.33.01,3.18,1.23,4.31s2.78,2.11,3.23,3.68c.45,1.58-.37,3.2-1.09,4.68-.93,1.91-1.73,3.95-1.73,6.07,0,3.37,2.01,6.4,3.22,9.57,1.02,2.67,1.48,5.54,1.36,8.38-.08,1.77-.43,3.64-1.64,4.97-.99,1.08-2.64,2.25-1.99,3.56,1.97-.33,3.9-.93,5.69-1.78.51-.24,1.02-.52,1.37-.95.37-.45.52-1.02.67-1.58.61-2.32,1.22-4.64,1.82-6.96.61.22,1.22.44,1.84.65.12-1.06.9-8.25,1.02-9.3-.36,2.9-.35,11.96,1.6,14.15s4.66,3.63,7.45,4.65c2.64.97,5.47,1.62,8.27,1.32,1.4,3.32.88,7.16-.6,10.43-1.49,3.31-4.05,6.3-7.51,7.7s-7.83.94-10.47-1.64c-.07,1.58.93,3.1,2.29,3.99s3.04,1.23,4.69,1.28c1.46.05,2.91-.14,4.31-.53s2.75-.98,3.98-1.74,2.35-1.69,3.3-2.76c.48-.53.91-1.1,1.29-1.7.19-.3.37-.61.54-.92.16-.29.32-.52.54-.78.27-.32.41-.75.59-1.12.2-.41.4-.83.59-1.25.38-.83.74-1.68,1.06-2.54.46-1.22.84-2.48,1.09-3.76.55-2.8.43-5.82-.8-8.41Z"/><path class="cls-4" d="M7.3,268.91c0-1.85.64-3.35,1.93-4.51,1.29-1.16,3.03-1.74,5.23-1.74s3.89.58,5.2,1.74,1.97,2.66,1.97,4.51c0,1.63-.5,2.99-1.49,4.08-.99,1.09-2.34,1.76-4.05,2.02l-.04,2.73,9.26-.32c.12,0,.25,0,.39-.02.14-.01.28-.03.43-.05s.28-.04.43-.05c.14-.01.28-.02.43-.02.47,0,.8.12.98.37.18.25.28.51.3.8.02.5-.1.86-.35,1.08-.26.22-.54.37-.85.44-.1.02-.18.04-.25.04s-.17-.01-.28-.04c-.12-.02-.27-.04-.44-.05-.18-.01-.4-.02-.66-.02-2.06.07-4.05.13-5.98.18-1.93.05-3.84.09-5.73.14-1.89.05-3.8.1-5.73.14-1.93.05-3.9.08-5.91.11-.38.02-.72-.05-1.03-.23-.31-.18-.54-.4-.71-.66-.19-.24-.3-.5-.34-.8s.02-.55.16-.76c.12-.19.29-.3.51-.34.22-.04.47-.04.73-.02.26.05.53.1.82.16.28.06.56.09.82.09,1.66.02,3.34.03,5.04.02,1.7-.01,3.42-.05,5.15-.12l-.04-2.73c-1.85-.21-3.29-.88-4.33-1.99-1.04-1.11-1.56-2.51-1.56-4.19ZM6.88,281.93c.4-.14.77-.16,1.1-.05.33.11.58.31.75.62.35.78.65,1.73.89,2.84.24,1.11.41,2.18.53,3.19.78.14,1.67.24,2.68.3,1,.06,2.05.08,3.14.05,1.06,0,2.14-.03,3.23-.09,1.09-.06,2.12-.14,3.09-.23.28,0,.51.12.69.36.18.24.28.53.3.89,0,.33-.09.62-.27.85-.18.24-.4.37-.66.39-.8.14-1.77.25-2.89.32-1.12.07-2.29.12-3.5.14-1.21,0-2.38-.03-3.53-.09-1.15-.06-2.12-.18-2.93-.37-.64-.12-1.15-.34-1.54-.67-.39-.33-.62-.82-.69-1.46-.14-.92-.3-1.86-.46-2.82s-.41-1.82-.75-2.57c-.12-.21-.12-.49,0-.83.12-.34.39-.6.82-.76ZM10.21,268.91c0,1.14.39,2.05,1.17,2.73.78.69,1.81,1.03,3.09,1.03s2.31-.34,3.09-1.01c.78-.67,1.17-1.59,1.17-2.75s-.39-2.05-1.17-2.73-1.81-1.03-3.09-1.03-2.31.34-3.09,1.03-1.17,1.6-1.17,2.73Z"/><path class="cls-4" d="M32.85,275.15c1.66.02,3.34.03,5.04.02,1.7-.01,3.42-.05,5.15-.12l-.07-2.88c0-.24.12-.43.37-.57.25-.14.62-.21,1.12-.21.43.02.78.14,1.06.35s.43.5.43.85l-.07,2.38c.76,0,1.52-.01,2.29-.04.77-.02,1.54-.06,2.32-.11.78-.02,1.56-.05,2.32-.07.77-.02,1.54-.06,2.32-.11.12,0,.25,0,.39-.02.14-.01.28-.03.43-.05.14-.02.28-.04.43-.05s.28-.02.43-.02c.47,0,.8.12.98.37.18.25.28.51.3.8.02.5-.1.86-.35,1.08-.26.23-.54.37-.85.44-.1.02-.18.04-.25.04s-.17-.01-.28-.04c-.12-.02-.27-.04-.44-.05-.18-.01-.4-.02-.66-.02-2.06.07-4.05.13-5.98.18-1.93.05-3.84.09-5.73.14-1.89.05-3.8.09-5.73.14-1.93.05-3.9.08-5.91.11-.38.02-.72-.05-1.03-.23-.31-.18-.54-.4-.71-.66-.19-.24-.3-.5-.34-.8-.04-.29.02-.55.16-.76.12-.19.29-.3.51-.34.22-.04.47-.04.73-.02.26.05.53.1.82.16.28.06.56.09.82.09ZM46.31,264.47c-.07.26-.14.51-.21.75s-.15.46-.25.67c1.32.69,2.66,1.49,4.01,2.41s2.46,1.79,3.34,2.59c.19.21.27.47.23.76-.04.3-.16.55-.37.76-.26.26-.52.41-.78.44-.26.04-.5-.04-.71-.23-1.09-.83-2.28-1.6-3.58-2.33-1.3-.72-2.57-1.34-3.8-1.86-1.06,1.18-2.27,2.15-3.62,2.89s-2.48,1.26-3.41,1.54c-.17.05-.32.09-.46.14-.14.05-.28.07-.43.07-.14.02-.29.02-.44,0-.15-.02-.31-.08-.48-.18-.35-.12-.56-.35-.62-.69-.06-.34.14-.63.59-.87,1.85-.99,3.46-2.02,4.84-3.09s2.44-2.39,3.18-3.97c.14-.33.24-.65.3-.96.06-.31.11-.58.16-.82.02-.24.06-.44.12-.6.06-.17.17-.28.34-.35.31-.12.61-.1.9.05.3.15.54.38.73.69.19.31.32.66.41,1.05.08.39.09.76.02,1.12ZM36.62,280.37c.12-.21.33-.34.64-.37.31-.04.6-.05.89-.05,1.89-.02,3.94-.08,6.14-.16,2.2-.08,4.23-.2,6.1-.34.47,0,.93.18,1.38.53.45.35.66.8.64,1.35-.02.33-.04.66-.05.98-.01.32-.03.62-.05.91-.02.31-.04.6-.05.87-.01.27-.03.54-.05.8-.09.73-.41,1.2-.94,1.4-.53.2-1.05.3-1.54.3-.76.02-1.53.05-2.32.07-.79.02-1.59.05-2.4.07-.78,0-1.57.01-2.38.04-.8.02-1.59.05-2.34.07l.67,2.13c1.7.02,3.45.02,5.23,0,1.79-.02,3.55-.08,5.31-.18.5,0,.86.11,1.1.34.24.22.35.49.35.8-.05.54-.25.92-.6,1.12-.35.2-.71.3-1.06.3-1.42.07-3.06.12-4.92.16-1.86.04-3.57.04-5.13.02-.8,0-1.45-.17-1.93-.51-.49-.34-.85-.91-1.08-1.69-.19-.52-.36-.99-.51-1.4-.15-.41-.36-.86-.62-1.33-.31-.52-.35-.99-.12-1.42.22-.43.62-.64,1.19-.64.92.02,1.9.02,2.93,0,1.03-.02,2.05-.05,3.07-.07.99-.05,1.95-.09,2.86-.14.91-.05,1.72-.11,2.43-.18l.04-2.17c-.83.05-1.7.09-2.63.14-.92.05-1.85.08-2.77.11-.95.05-1.88.1-2.79.14-.91.05-1.77.08-2.57.11-.33.02-.65-.02-.96-.14-.31-.12-.57-.28-.78-.5s-.36-.44-.44-.69c-.08-.25-.05-.5.09-.76Z"/><path class="cls-4" d="M83.35,270.79c0,.88-.12,1.73-.37,2.57-.25.84-.64,1.59-1.19,2.25-.52.64-1.2,1.16-2.04,1.56-.84.4-1.85.6-3.03.6-1.25,0-2.3-.2-3.14-.59-.84-.39-1.53-.92-2.08-1.58-.52-.66-.89-1.41-1.12-2.24-.23-.83-.34-1.69-.34-2.59s.14-1.81.43-2.66c.28-.85.7-1.6,1.24-2.24.57-.64,1.27-1.15,2.09-1.54.83-.39,1.8-.58,2.91-.58s2.05.19,2.89.57c.84.38,1.53.89,2.08,1.53s.96,1.38,1.24,2.24c.28.85.43,1.75.43,2.7ZM80.44,270.79c0-1.28-.3-2.31-.89-3.11-.59-.79-1.55-1.19-2.87-1.19s-2.31.4-2.87,1.21c-.57.8-.85,1.83-.85,3.09,0,1.35.32,2.41.96,3.18.64.77,1.56,1.15,2.77,1.15s2.19-.4,2.82-1.21c.63-.8.94-1.85.94-3.12ZM76.79,285.66c0-.95.19-1.8.57-2.55.38-.76.9-1.41,1.56-1.95.64-.54,1.4-.96,2.27-1.24.88-.28,1.8-.43,2.77-.43s1.86.14,2.73.43c.88.28,1.63.7,2.27,1.24.66.52,1.19,1.17,1.58,1.93.39.77.59,1.63.59,2.57s-.19,1.83-.59,2.59c-.39.76-.92,1.41-1.58,1.95-.64.52-1.4.92-2.27,1.21-.88.28-1.79.43-2.73.43-.97.02-1.89-.11-2.77-.39-.88-.28-1.63-.7-2.27-1.24-.66-.54-1.18-1.2-1.56-1.95-.38-.76-.57-1.62-.57-2.59ZM79.7,285.66c0,.95.37,1.79,1.12,2.52.75.73,1.79,1.09,3.14,1.06,1.32,0,2.37-.36,3.12-1.08.76-.72,1.14-1.55,1.14-2.5s-.38-1.78-1.14-2.5c-.76-.72-1.8-1.08-3.12-1.08s-2.4.36-3.14,1.06c-.75.71-1.12,1.55-1.12,2.52ZM87.36,260.85c.33-.28.72-.36,1.17-.23.45.13.8.34,1.06.62.47.54.86,1.15,1.15,1.83.3.67.44,1.37.44,2.08l-.04,1.17c.24,0,.47,0,.71-.02.24-.01.48-.03.75-.05.24,0,.48-.01.75-.04.26-.02.52-.05.78-.07.26,0,.54,0,.83-.02.3-.01.57-.02.83-.02.47.05.79.2.96.44.17.25.25.51.25.8,0,.47-.14.82-.41,1.05-.27.23-.57.36-.9.41-.09.02-.18.02-.25,0-.07-.02-.17-.05-.28-.07-.09-.02-.23-.04-.41-.05s-.4-.02-.66-.02c-.5.02-.99.05-1.49.07-.5.02-1.01.04-1.53.04l-.07,3.26c.24,0,.48,0,.75-.02.26-.01.52-.03.78-.05.26-.02.52-.04.78-.05s.53-.04.82-.09c.26,0,.54,0,.83-.02.3-.01.57-.02.83-.02.47.05.79.19.96.44.17.25.25.51.25.8,0,.47-.14.82-.41,1.05-.27.23-.57.36-.9.41-.09.02-.18.02-.25,0-.07-.02-.17-.05-.28-.07-.09-.02-.23-.04-.41-.05-.18-.01-.4-.02-.66-.02-.5.02-1.01.05-1.54.07s-1.07.04-1.61.04l-.04,1.14c-.02.35-.06.75-.11,1.17s-.12.84-.21,1.24c-.12.38-.28.7-.5.98-.21.27-.47.42-.78.44-.26.05-.47-.05-.64-.28s-.3-.52-.39-.85c-.12-.33-.2-.67-.23-1.03-.04-.36-.05-.66-.05-.92l.14-10.15c0-.33-.03-.74-.09-1.22-.06-.48-.17-.91-.34-1.26-.21-.4-.42-.89-.62-1.46-.2-.57-.11-1.03.27-1.38Z"/><path class="cls-4" d="M101.27,266.32c.76.05,1.48.08,2.18.09.7.01,1.43,0,2.18-.02.78-.02,1.63-.06,2.54-.11.91-.05,1.97-.12,3.18-.21.12,0,.25,0,.41-.02.15-.01.3-.03.44-.05.14-.02.28-.04.43-.05s.28-.02.43-.02c.47,0,.8.12.98.37.18.25.28.51.3.8.02.5-.09.86-.34,1.08-.25.23-.53.36-.83.41-.09.02-.18.04-.27.04h-.3c-.12,0-.27,0-.46-.02-.19-.01-.41-.02-.67-.02-1.14.02-2.14.05-3,.09-.86.04-1.71.07-2.54.09-.83.05-1.68.08-2.56.09-.88.01-1.89.02-3.05.02-.38,0-.72-.08-1.03-.25-.31-.17-.56-.38-.75-.64-.19-.26-.3-.53-.34-.82-.04-.28.02-.54.16-.78.12-.19.29-.3.51-.32.22-.02.48-.02.76,0,.26.05.53.1.82.16.28.06.56.09.82.09ZM106.63,280.3c-.71,0-1.43-.09-2.15-.28-.72-.19-1.38-.5-1.97-.92-.59-.4-1.06-.93-1.42-1.58-.35-.65-.53-1.42-.53-2.32,0-.83.17-1.56.5-2.2.33-.64.77-1.18,1.31-1.63.57-.43,1.21-.75,1.93-.98.72-.22,1.48-.34,2.29-.34,1.89,0,3.39.49,4.49,1.46s1.65,2.2,1.65,3.69c0,1.4-.54,2.6-1.61,3.6-1.08,1.01-2.57,1.51-4.49,1.51ZM101.45,261.81c.14-.14.34-.2.59-.18.25.02.47.07.66.14.76.35,1.67.63,2.73.83,1.06.2,2.53.2,4.4-.02.43-.05.75,0,.98.12.22.13.37.31.44.55.05.33-.05.63-.28.89-.24.26-.47.46-.71.6-.26.17-.64.28-1.14.34-.5.06-.94.09-1.31.09-.78,0-1.7-.04-2.77-.12-1.06-.08-1.99-.34-2.77-.76-.5-.26-.83-.67-1.01-1.22-.18-.56-.11-.98.2-1.26ZM106.56,277.82c1.09,0,1.92-.24,2.48-.71.57-.47.85-1.1.85-1.88,0-.88-.27-1.55-.82-2.02-.54-.47-1.37-.71-2.48-.71s-1.95.28-2.45.83c-.5.56-.75,1.19-.75,1.9s.26,1.29.78,1.81c.52.52,1.31.78,2.38.78ZM104.01,284.81c-.14-.28-.19-.61-.14-.98.05-.37.3-.66.75-.87.26-.14.57-.18.94-.11.37.07.62.22.76.46.28.62.56,1.4.82,2.34.26.95.46,1.91.6,2.88,2.06.28,4.17.4,6.33.35,2.17-.05,4.13-.14,5.91-.28.43-.02.74.08.94.3.2.22.31.49.34.8,0,.43-.11.76-.34.99-.23.24-.48.37-.76.39-1.92.26-3.9.39-5.96.39s-4.06-.11-6-.32c-.28-.02-.6-.08-.94-.16-.34-.08-.67-.21-.98-.37-.31-.17-.58-.38-.82-.66-.24-.27-.39-.63-.46-1.08-.07-.38-.14-.75-.21-1.12-.07-.37-.15-.72-.25-1.05-.07-.36-.15-.69-.25-1.01-.09-.32-.19-.62-.28-.91ZM116.46,260.85c.33-.28.72-.36,1.17-.23.45.13.8.34,1.06.62.47.52.86,1.12,1.15,1.79.3.67.44,1.37.44,2.08l-.11,5.75c.5,0,.99-.01,1.49-.04.5-.02,1.02-.07,1.56-.14.26,0,.54,0,.83-.02.3-.01.57-.02.83-.02.47.05.79.2.96.44s.25.51.25.8c0,.47-.14.82-.41,1.05s-.57.36-.9.41c-.09.02-.18.02-.25,0-.07-.02-.17-.05-.28-.07-.09-.02-.23-.04-.41-.05-.18-.01-.4-.02-.66-.02-.5.02-1,.05-1.51.07-.51.02-1.04.04-1.58.04l-.11,6.92c-.02.36-.06.75-.11,1.19s-.12.85-.21,1.22c-.12.4-.28.74-.5,1.01-.21.27-.47.42-.78.44-.26.02-.47-.08-.64-.3s-.3-.51-.39-.87c-.12-.33-.2-.67-.23-1.03-.04-.35-.05-.66-.05-.92l.14-14.8c0-.36-.03-.77-.09-1.24-.06-.47-.17-.89-.34-1.24-.12-.21-.24-.44-.35-.69-.12-.25-.21-.5-.28-.76-.07-.26-.09-.51-.05-.75.04-.24.15-.45.34-.64Z"/><path class="cls-4" d="M129.35,264.44c.64-.21,1.25,0,1.85.66.59.65.95,1.71,1.06,3.18v.53c0,.07,0,.15.02.25.01.09.02.19.02.28.57-.02,1.11-.05,1.61-.07.51-.02,1.01-.05,1.51-.07.5-.02,1.01-.05,1.54-.07.53-.02,1.12-.06,1.76-.11,0-.76-.02-1.46-.07-2.11-.05-.65-.13-1.33-.25-2.04-.07-.26.04-.53.32-.8.28-.27.62-.41.99-.41.57,0,.98.11,1.22.32.25.21.41.49.48.82.12,1.09.17,2.5.14,4.22-.02,1.73-.09,3.45-.21,5.18-.07.66-.21,1.22-.43,1.67s-.65.77-1.31.96c-.85.26-1.99.48-3.42.66-1.43.18-2.82.24-4.17.2-.57,0-1.14-.17-1.7-.5-.57-.33-.85-1.03-.85-2.09-.02-.45-.03-1.02-.02-1.7.01-.69.02-1.4.02-2.13s-.02-1.43-.05-2.09c-.04-.66-.1-1.21-.2-1.63-.12-.38-.21-.73-.28-1.06-.07-.33-.12-.64-.14-.92-.02-.26,0-.49.09-.67.08-.19.24-.33.48-.43ZM132.36,271.68v1.92c0,.62.01,1.14.04,1.56,1.11-.05,2.18-.14,3.21-.27,1.03-.13,2.02-.3,2.96-.51v-.78c0-.26.01-.51.04-.75,0-.26,0-.5.02-.73.01-.22.02-.46.02-.69-1.14.02-2.17.05-3.11.09s-1.99.09-3.18.16ZM134.99,285.66c0-.95.19-1.8.57-2.55.38-.76.9-1.41,1.56-1.95.64-.54,1.4-.96,2.27-1.24.88-.28,1.8-.43,2.77-.43s1.86.14,2.73.43c.88.28,1.63.7,2.27,1.24.66.52,1.19,1.17,1.58,1.93.39.77.58,1.63.58,2.57s-.2,1.83-.58,2.59c-.39.76-.92,1.41-1.58,1.95-.64.52-1.4.92-2.27,1.21-.88.28-1.79.43-2.73.43-.97.02-1.89-.11-2.77-.39-.88-.28-1.63-.7-2.27-1.24-.66-.54-1.18-1.2-1.56-1.95-.38-.76-.57-1.62-.57-2.59ZM137.9,285.66c0,.95.37,1.79,1.12,2.52.75.73,1.79,1.09,3.14,1.06,1.32,0,2.37-.36,3.12-1.08.76-.72,1.14-1.55,1.14-2.5s-.38-1.78-1.14-2.5c-.76-.72-1.8-1.08-3.12-1.08s-2.4.36-3.14,1.06c-.74.71-1.12,1.55-1.12,2.52ZM145.56,260.85c.33-.28.72-.36,1.17-.23s.8.34,1.07.62c.47.54.86,1.15,1.15,1.83.29.67.44,1.37.44,2.08l-.11,3.87c.5-.02.99-.05,1.49-.09s1.02-.08,1.56-.12c.26,0,.54,0,.83-.02s.57-.02.83-.02c.47.05.79.19.96.44.17.25.25.51.25.8,0,.5-.14.85-.41,1.06-.27.21-.57.34-.91.39-.09.02-.18.03-.25.02-.07-.01-.17-.03-.28-.05-.09-.02-.23-.05-.41-.07-.18-.02-.4-.04-.66-.04-.5.02-1,.05-1.51.07-.51.02-1.04.04-1.58.04l-.11,4.15c-.02.35-.06.75-.11,1.17-.05.43-.12.84-.21,1.24-.12.38-.28.7-.5.98-.21.27-.47.42-.78.44-.26.05-.47-.05-.64-.28-.17-.24-.3-.52-.39-.85-.12-.33-.2-.67-.23-1.03-.04-.36-.05-.66-.05-.92l.14-10.15c0-.33-.03-.74-.09-1.22-.06-.48-.17-.91-.34-1.26-.21-.4-.42-.89-.62-1.46-.2-.57-.11-1.03.27-1.38Z"/><path class="cls-4" d="M175.51,265.75c.07.26.14.62.2,1.08.06.46.12.94.2,1.44.05.52.09,1.03.12,1.53.04.5.07.9.09,1.21,1.77.02,3.56.04,5.36.04s3.61-.06,5.43-.18c.33,0,.67.08,1.03.23.36.15.53.47.53.94s-.12.79-.37,1.03c-.25.24-.62.35-1.12.35-.43.02-.85.04-1.26.05s-.82.02-1.22.02c-.4.02-.81.04-1.22.04h-1.19l-.07,2.8,9.26-.32c.12,0,.25,0,.39-.02s.28-.03.43-.05c.14-.02.28-.04.43-.05s.28-.02.43-.02c.47,0,.8.12.98.37.18.25.28.51.3.8.02.5-.09.86-.35,1.08-.26.23-.54.37-.85.44-.09.02-.18.04-.25.04s-.17-.01-.28-.04c-.12-.02-.27-.04-.44-.05-.18-.01-.4-.02-.66-.02-2.06.07-4.05.13-5.98.18-1.93.05-3.84.1-5.73.14-1.89.05-3.8.09-5.73.14-1.93.05-3.9.08-5.91.11-.38.02-.72-.05-1.03-.23-.31-.18-.54-.4-.71-.66-.19-.24-.3-.5-.34-.8-.04-.3.02-.55.16-.76.12-.19.29-.3.51-.34.22-.04.47-.04.73-.02.26.05.53.1.82.16.28.06.56.09.82.09,1.66.02,3.34.03,5.04.02s3.42-.05,5.15-.12l-.07-2.84h-1.31c-.21,0-.43,0-.64-.02-.21-.01-.43-.02-.64-.02-.36,0-.71-.02-1.06-.07-.36-.05-.69-.17-.99-.35-.31-.17-.57-.42-.78-.76-.21-.34-.33-.81-.36-1.4-.02-.31-.05-.67-.09-1.08-.04-.41-.07-.82-.09-1.22-.05-.4-.09-.79-.14-1.15-.05-.37-.09-.66-.14-.87-.07-.21-.15-.44-.23-.67-.08-.24-.16-.47-.23-.71-.07-.21-.12-.43-.14-.64-.02-.21.01-.4.11-.57.14-.26.31-.46.51-.6.2-.14.55-.21,1.05-.21.31.02.62.04.94.04h1.01c1.21,0,2.55-.03,4.03-.09s2.86-.14,4.13-.23c.17,0,.34-.01.51-.04.18-.02.35-.05.51-.07.19,0,.37-.01.53-.04.17-.02.34-.05.53-.07.62,0,1.11.12,1.47.36.37.24.56.57.59.99,0,.43-.15.76-.44,1.01s-.76.37-1.4.37c-.92.05-1.83.08-2.73.09-.9.01-1.8.03-2.7.05-.92.02-1.83.05-2.73.09-.9.04-1.79.07-2.66.09ZM173.35,286.26c0-.95.2-1.77.59-2.47.39-.7.92-1.28,1.58-1.76.66-.45,1.43-.79,2.31-1.01.88-.22,1.8-.34,2.77-.34s1.86.11,2.73.34c.88.23,1.64.56,2.31,1.01.66.47,1.19,1.06,1.6,1.76.4.7.6,1.52.6,2.47s-.2,1.8-.6,2.5-.93,1.27-1.6,1.72c-.66.47-1.43.82-2.31,1.03-.88.21-1.79.32-2.73.32-.97.02-1.89-.08-2.77-.3-.88-.23-1.64-.57-2.31-1.05-.66-.45-1.19-1.02-1.58-1.72s-.59-1.53-.59-2.5ZM184.92,286.26c0-.95-.39-1.68-1.17-2.2-.78-.52-1.83-.78-3.16-.78s-2.41.26-3.18.78c-.77.52-1.15,1.25-1.15,2.2s.38,1.69,1.15,2.22c.77.53,1.83.79,3.18.76,1.32,0,2.38-.26,3.16-.78.78-.52,1.17-1.25,1.17-2.2Z"/><path class="cls-4" d="M198.79,274.69c1.8.02,3.62.02,5.48,0,1.86-.02,3.72-.06,5.59-.11,1.87-.05,3.74-.11,5.61-.18,1.87-.07,3.74-.14,5.61-.21.12,0,.25,0,.39-.02.14-.01.28-.03.43-.05s.28-.04.43-.05c.14-.01.28-.02.43-.02.47,0,.8.12.98.37.18.25.28.51.3.8.02.5-.09.86-.35,1.1-.26.24-.54.38-.85.43-.09.02-.18.04-.25.04s-.17-.01-.28-.04c-.12,0-.27,0-.44-.02-.18-.01-.4-.02-.66-.02-.83.02-1.63.05-2.41.07-.78.02-1.56.05-2.34.07-.76.02-1.52.05-2.29.07-.77.02-1.52.04-2.25.04v.25c0,.57-.04,1.05-.11,1.45-.07.4-.15.75-.25,1.03.83,0,1.64-.02,2.45-.07.8-.05,1.58-.11,2.34-.18.47,0,.93.18,1.38.53.45.35.66.8.64,1.35-.02.33-.04.66-.05.98s-.03.62-.05.91c-.02.31-.04.6-.05.87-.01.27-.03.54-.05.8-.09.73-.41,1.2-.94,1.4-.53.2-1.05.3-1.54.3-.76.02-1.53.05-2.32.07-.79.02-1.59.05-2.4.07-.78,0-1.57.01-2.38.04-.8.02-1.58.05-2.34.07l.67,2.13c1.7.02,3.45.02,5.23,0s3.55-.08,5.31-.18c.5,0,.86.11,1.1.34.24.22.35.49.35.8-.05.54-.25.92-.6,1.12-.35.2-.71.3-1.06.3-1.42.07-3.06.12-4.92.16-1.86.04-3.57.04-5.13.02-.8,0-1.45-.17-1.93-.51-.48-.34-.85-.91-1.08-1.69-.19-.52-.36-.99-.51-1.4-.15-.41-.36-.86-.62-1.33-.31-.52-.35-.99-.12-1.42.22-.43.62-.64,1.19-.64.92.02,1.9.02,2.93,0s2.05-.05,3.07-.07c.99-.05,1.95-.09,2.86-.14.91-.05,1.72-.11,2.43-.18l.04-2.17c-.83.05-1.7.09-2.63.14-.92.05-1.85.08-2.77.11-.95.05-1.88.1-2.79.14-.91.05-1.77.08-2.57.11-.33.02-.65-.02-.96-.14-.31-.12-.57-.28-.78-.5s-.36-.44-.44-.69c-.08-.25-.05-.5.09-.76.12-.21.33-.34.64-.37.31-.04.6-.05.89-.05.38,0,.78,0,1.19-.02.41-.01.83-.02,1.26-.02.43-.02.86-.04,1.29-.05s.88-.03,1.33-.05c-.07-.21-.12-.45-.16-.71-.04-.26-.05-.56-.05-.89l-.07-1.17c-1.8.07-3.61.12-5.43.16-1.82.04-3.69.07-5.61.09-.38.02-.72-.05-1.03-.23-.31-.18-.54-.4-.71-.66-.19-.26-.3-.53-.34-.82-.04-.28.02-.54.16-.78.12-.19.29-.3.51-.34.22-.04.47-.04.73-.02.26.05.53.1.82.16.28.06.56.09.82.09ZM201.53,263.69c.07-.31.25-.51.55-.6.3-.09.75-.13,1.37-.11.38.02.76.04,1.15.04s.79-.01,1.19-.04c1.63-.07,3.21-.15,4.72-.25,1.51-.09,3.1-.21,4.75-.36.83-.07,1.43.08,1.79.46.37.38.55.82.55,1.31-.05,1.14-.11,2.24-.2,3.32-.08,1.08-.16,2.08-.23,3-.07.64-.25,1.1-.53,1.38-.28.28-.85.45-1.7.5-.57.05-1.24.09-2,.12s-1.57.07-2.4.09-1.66.03-2.48.02c-.83-.01-1.57-.04-2.24-.09-.92-.07-1.58-.39-1.99-.96-.4-.57-.64-1.17-.71-1.81-.07-.5-.17-1.13-.3-1.9s-.3-1.4-.51-1.9c-.09-.17-.2-.35-.3-.55-.11-.2-.21-.41-.3-.62-.07-.19-.13-.37-.18-.55-.05-.18-.05-.35,0-.51ZM205.22,265.43c.14.57.28,1.32.43,2.25.14.94.24,1.72.28,2.36,1.66.07,3.21.09,4.65.07,1.44-.02,2.74-.09,3.9-.21.07-.83.12-1.7.16-2.61.04-.91.07-1.73.09-2.47-1.61.14-3.21.26-4.79.35-1.58.09-3.16.18-4.72.25Z"/><path class="cls-4" d="M227.58,264.44c.64-.21,1.25,0,1.84.66.59.65.95,1.71,1.07,3.18v.53c0,.07,0,.15.02.25.01.09.02.19.02.28.57-.02,1.11-.05,1.61-.07.51-.02,1.01-.05,1.51-.07s1.01-.05,1.54-.07,1.12-.06,1.76-.11c0-.76-.02-1.46-.07-2.11-.05-.65-.13-1.33-.25-2.04-.07-.26.04-.53.32-.8.28-.27.61-.41.99-.41.57,0,.98.11,1.22.32.25.21.41.49.48.82,0,.14,0,.28.02.43.01.14.02.3.02.46.02.17.04.34.05.51s.02.35.02.51h1.4c.15,0,.31-.01.48-.04.31-.02.62-.05.94-.07s.64-.05.98-.07c.33-.02.66-.05.98-.07s.63-.06.94-.11v-.18c0-.33-.03-.74-.09-1.22-.06-.48-.17-.91-.34-1.26-.21-.4-.42-.89-.62-1.46-.2-.57-.11-1.03.27-1.38.33-.28.72-.36,1.17-.23.45.13.8.34,1.06.62.47.54.86,1.15,1.15,1.83.3.67.44,1.37.44,2.08l-.28,10.43c-.02.35-.06.75-.11,1.17-.05.43-.12.84-.21,1.24-.12.38-.28.7-.5.98-.21.27-.47.42-.78.44-.26.05-.47-.05-.64-.28-.17-.24-.3-.52-.39-.85-.12-.33-.19-.67-.23-1.03-.04-.36-.05-.66-.05-.92l.04-2.24-4.47.5c-.28.05-.54.07-.76.07s-.42-.04-.59-.11c-.07.57-.22,1.05-.46,1.44-.24.39-.65.67-1.24.83-.85.26-1.99.48-3.42.66s-2.82.24-4.17.2c-.57,0-1.14-.17-1.7-.5-.57-.33-.85-1.03-.85-2.09-.02-.45-.03-1.02-.02-1.7.01-.69.02-1.4.02-2.13s-.02-1.43-.05-2.09c-.04-.66-.1-1.21-.2-1.63-.12-.38-.21-.73-.28-1.06-.07-.33-.12-.64-.14-.92-.02-.26,0-.49.09-.67.08-.19.24-.33.48-.43ZM230.59,271.68v1.92c0,.62.01,1.14.04,1.56,1.11-.05,2.18-.14,3.21-.27,1.03-.13,2.02-.3,2.96-.51v-.78c0-.26.01-.51.04-.75,0-.26,0-.5.02-.73.01-.22.02-.46.02-.69-1.14.02-2.17.05-3.11.09s-1.99.09-3.18.16ZM233.57,285.66c0-.95.19-1.8.57-2.55.38-.76.9-1.41,1.56-1.95.64-.54,1.4-.96,2.27-1.24.88-.28,1.8-.43,2.77-.43s1.86.14,2.73.43c.88.28,1.63.7,2.27,1.24.66.52,1.19,1.17,1.58,1.93s.59,1.63.59,2.57-.2,1.83-.59,2.59-.92,1.41-1.58,1.95c-.64.52-1.4.92-2.27,1.21-.88.28-1.79.43-2.73.43-.97.02-1.89-.11-2.77-.39s-1.63-.7-2.27-1.24c-.66-.54-1.18-1.2-1.56-1.95-.38-.76-.57-1.62-.57-2.59ZM236.48,285.66c0,.95.37,1.79,1.12,2.52.75.73,1.79,1.09,3.14,1.06,1.32,0,2.37-.36,3.12-1.08.76-.72,1.14-1.55,1.14-2.5s-.38-1.78-1.14-2.5c-.76-.72-1.8-1.08-3.12-1.08s-2.4.36-3.14,1.06c-.75.71-1.12,1.55-1.12,2.52ZM239.78,269.37c-.02.43-.05.86-.07,1.3s-.04.87-.04,1.29h1.46c.17,0,.33-.01.5-.04.28-.02.59-.05.91-.07.32-.02.64-.05.98-.07.31-.02.62-.05.94-.07s.63-.06.94-.11l.04-2.77-4.54.5c-.21.05-.41.07-.6.07s-.35-.01-.5-.04Z"/><path class="cls-4" d="M256.21,275.37c2.13-.07,4.3-.18,6.51-.34,2.21-.15,4.7-.34,7.47-.55.12,0,.25,0,.39-.02.14-.01.28-.03.43-.05.14-.02.28-.04.43-.05.14-.01.28-.02.43-.02.47,0,.8.12.98.37.18.25.28.51.3.8.02.5-.09.86-.35,1.08-.26.22-.54.37-.85.44-.09.02-.18.03-.25.02s-.17-.03-.28-.05c-.12-.02-.27-.04-.44-.05s-.4,0-.66.02c-.43.05-.86.09-1.31.14-.45.05-.92.08-1.42.11-.47.05-.96.09-1.46.14-.5.05-.99.08-1.49.11v1.03c0,1.28-.14,2.26-.41,2.95-.27.69-.62,1.04-1.05,1.06-.5.05-.85-.3-1.06-1.05s-.32-1.51-.32-2.29l-.07-1.53c-1.13.07-2.25.13-3.35.18-1.1.05-2.13.07-3.1.07-.38,0-.72-.08-1.03-.25-.31-.17-.56-.38-.75-.64-.19-.26-.3-.53-.34-.82-.04-.28.02-.53.16-.75.12-.19.29-.3.51-.34.22-.04.48-.03.76.02.26.05.53.11.82.18s.56.09.82.07ZM269.7,267.88c0,1.77-.64,3.13-1.93,4.06-1.29.93-2.86,1.4-4.7,1.4-.92.02-1.79-.08-2.61-.32-.82-.24-1.52-.59-2.11-1.06-.59-.45-1.06-1.02-1.4-1.7-.34-.69-.51-1.48-.51-2.38,0-1.77.64-3.13,1.93-4.08s2.86-1.41,4.7-1.38c1.85,0,3.41.47,4.7,1.4,1.29.94,1.93,2.29,1.93,4.06ZM266.79,267.88c0-.9-.34-1.61-1.01-2.15-.67-.53-1.58-.8-2.71-.8s-2.04.27-2.71.8c-.67.53-1.01,1.25-1.01,2.15s.34,1.62,1.01,2.17c.67.54,1.58.8,2.71.78,1.14,0,2.04-.27,2.71-.8.67-.53,1.01-1.25,1.01-2.15ZM260.22,285.13c-.17-.28-.21-.61-.14-.98.07-.37.32-.66.75-.87.28-.14.59-.17.92-.09.33.08.6.23.82.44.38.47.71,1.16.99,2.06s.48,1.83.6,2.8c2.06.28,4.18.4,6.35.35,2.18-.05,4.15-.14,5.93-.28.43-.02.74.08.94.32.2.24.31.51.34.82,0,.43-.11.76-.34.99-.23.24-.48.37-.76.39-.85.14-1.78.24-2.79.3-1.01.06-2.04.09-3.11.09s-2.14-.02-3.21-.07c-1.08-.05-2.1-.13-3.07-.25-.28-.02-.6-.08-.94-.16-.34-.08-.67-.21-.98-.37-.31-.17-.58-.39-.82-.67-.24-.28-.39-.65-.46-1.1-.12-.71-.25-1.39-.41-2.04-.15-.65-.36-1.21-.62-1.69ZM267.57,280.3c.02-.21.15-.41.39-.58.24-.18.5-.28.78-.3h1.54c.18,0,.36-.01.55-.04.62-.02,1.2-.06,1.76-.12.56-.06,1.13-.12,1.72-.2l.11-12.88c0-.36-.03-.77-.09-1.24-.06-.47-.17-.89-.34-1.24-.12-.21-.24-.44-.35-.69-.12-.25-.21-.5-.28-.76-.07-.26-.09-.51-.05-.75.04-.24.15-.45.34-.64.33-.28.72-.36,1.17-.23.45.13.8.34,1.06.62.45.52.83,1.12,1.14,1.79.31.67.46,1.37.46,2.08l-.28,16.4c-.02.35-.06.75-.11,1.19-.05.44-.12.85-.21,1.22-.12.4-.28.74-.5,1.01-.21.27-.47.42-.78.44-.26.02-.47-.08-.64-.3-.17-.22-.3-.51-.39-.87-.12-.33-.2-.67-.23-1.03-.04-.36-.05-.66-.05-.92v-.89l-4.19.53c-.88.12-1.53.02-1.97-.28-.44-.31-.62-.75-.55-1.31Z"/><path class="cls-4" d="M60.87,313.46c-.31.66-.75,1.17-1.31,1.53s-1.19.54-1.91.54-1.35-.18-1.91-.54-.99-.87-1.31-1.53-.47-1.42-.47-2.29.16-1.64.47-2.3.75-1.17,1.31-1.52,1.19-.54,1.91-.54,1.35.18,1.91.54.99.87,1.31,1.52.47,1.42.47,2.3-.16,1.63-.47,2.29ZM60.16,309.26c-.25-.54-.59-.95-1.02-1.23s-.93-.42-1.48-.42-1.04.14-1.48.42-.78.69-1.03,1.23-.38,1.18-.38,1.92.12,1.37.38,1.91.59.95,1.03,1.24.93.43,1.48.43,1.05-.14,1.48-.42.77-.69,1.02-1.23.37-1.18.37-1.92-.12-1.38-.37-1.92Z"/><path class="cls-4" d="M71.3,315.42h-.8l-4.93-7h-.07v7h-.83v-8.48h.81l4.93,7.01h.07v-7.01h.82v8.48Z"/><path class="cls-4" d="M79.3,308.26c-.17-.23-.4-.4-.69-.52s-.62-.18-.99-.18c-.39,0-.73.07-1.03.2s-.53.31-.7.54-.25.5-.25.8c0,.4.16.72.47.95s.72.42,1.21.56l.88.25c.68.18,1.24.45,1.67.8s.65.85.65,1.49c0,.46-.12.87-.35,1.24s-.58.66-1.03.86-.98.31-1.59.31c-.57,0-1.08-.1-1.51-.29s-.77-.46-1.02-.81-.38-.75-.42-1.2h.85c.03.32.14.6.33.83s.43.4.74.52.65.18,1.02.18c.42,0,.79-.07,1.12-.21s.58-.33.77-.59.28-.54.28-.87c0-.27-.07-.5-.21-.69s-.34-.35-.59-.48-.57-.25-.95-.36l-1.02-.29c-.68-.2-1.21-.48-1.57-.84s-.54-.8-.54-1.34c0-.45.12-.86.37-1.21s.58-.63,1.01-.82.9-.3,1.43-.3.99.1,1.4.29.74.46.98.8.37.72.39,1.15h-.81c-.03-.3-.13-.57-.3-.8Z"/><path class="cls-4" d="M90.38,313.46c-.31.66-.75,1.17-1.31,1.53s-1.19.54-1.91.54-1.35-.18-1.91-.54-.99-.87-1.31-1.53-.47-1.42-.47-2.29.16-1.64.47-2.3.75-1.17,1.31-1.52,1.19-.54,1.91-.54,1.35.18,1.91.54.99.87,1.31,1.52.47,1.42.47,2.3-.16,1.63-.47,2.29ZM89.67,309.26c-.25-.54-.59-.95-1.02-1.23s-.93-.42-1.48-.42-1.04.14-1.48.42-.78.69-1.03,1.23-.38,1.18-.38,1.92.12,1.37.38,1.91.59.95,1.03,1.24.93.43,1.48.43,1.05-.14,1.48-.42.77-.69,1.02-1.23.37-1.18.37-1.92-.12-1.38-.37-1.92Z"/><path class="cls-4" d="M94.17,306.93h.83v7.73h4.03v.75h-4.86v-8.48Z"/><path class="cls-4" d="M106.02,315.42l3.08-8.48h.9l3.09,8.48h-.88l-2.63-7.41h-.06l-2.63,7.41h-.87ZM111.67,312.15v.74h-4.24v-.74h4.24Z"/><path class="cls-4" d="M122.63,315.42h-.8l-4.93-7h-.07v7h-.83v-8.48h.81l4.93,7.01h.07v-7.01h.82v8.48Z"/><path class="cls-4" d="M127.17,315.42h-.83v-8.48h.83v8.48Z"/><path class="cls-4" d="M131.84,306.93l3.03,7.29h.08l3.03-7.29h.97v8.48h-.79v-6.76h-.07l-2.82,6.76h-.75l-2.82-6.76h-.06v6.76h-.79v-8.48h.98Z"/><path class="cls-4" d="M141.87,315.42l3.08-8.48h.9l3.09,8.48h-.88l-2.63-7.41h-.06l-2.63,7.41h-.87ZM147.52,312.15v.74h-4.24v-.74h4.24Z"/><path class="cls-4" d="M151.85,306.93h.83v7.73h4.03v.75h-4.86v-8.48Z"/><path class="cls-4" d="M164.48,306.93h.83v3.87h4.75v-3.87h.84v8.48h-.84v-3.88h-4.75v3.88h-.83v-8.48Z"/><path class="cls-4" d="M181.12,313.46c-.31.66-.75,1.17-1.31,1.53s-1.19.54-1.91.54-1.35-.18-1.91-.54-.99-.87-1.31-1.53-.47-1.42-.47-2.29.16-1.64.47-2.3.75-1.17,1.31-1.52,1.19-.54,1.91-.54,1.35.18,1.91.54.99.87,1.31,1.52.47,1.42.47,2.3-.16,1.63-.47,2.29ZM180.42,309.26c-.25-.54-.59-.95-1.02-1.23s-.93-.42-1.48-.42-1.04.14-1.48.42-.78.69-1.03,1.23-.38,1.18-.38,1.92.12,1.37.38,1.91.59.95,1.03,1.24.93.43,1.48.43,1.05-.14,1.48-.42.77-.69,1.02-1.23.37-1.18.37-1.92-.12-1.38-.37-1.92Z"/><path class="cls-4" d="M189.22,308.26c-.17-.23-.4-.4-.69-.52s-.62-.18-.99-.18c-.39,0-.73.07-1.03.2s-.53.31-.7.54-.25.5-.25.8c0,.4.16.72.47.95s.72.42,1.21.56l.88.25c.68.18,1.24.45,1.67.8s.65.85.65,1.49c0,.46-.12.87-.35,1.24s-.58.66-1.03.86-.98.31-1.59.31c-.57,0-1.08-.1-1.51-.29s-.77-.46-1.02-.81-.38-.75-.42-1.2h.85c.03.32.14.6.33.83s.43.4.74.52.65.18,1.02.18c.42,0,.79-.07,1.12-.21s.58-.33.77-.59c.18-.25.28-.54.28-.87,0-.27-.07-.5-.21-.69s-.34-.35-.59-.48-.57-.25-.95-.36l-1.02-.29c-.68-.2-1.21-.48-1.57-.84s-.54-.8-.54-1.34c0-.45.12-.86.37-1.21s.58-.63,1.01-.82.9-.3,1.43-.3.99.1,1.4.29.74.46.98.8.37.72.39,1.15h-.81c-.03-.3-.13-.57-.3-.8Z"/><path class="cls-4" d="M193.77,306.93h2.77c.59,0,1.1.11,1.51.34s.73.54.94.93.31.85.31,1.36-.1.96-.31,1.35-.52.71-.93.94-.92.35-1.51.35h-2.14v-.75h2.11c.43,0,.8-.08,1.09-.24s.51-.39.66-.67.21-.61.21-.98-.07-.7-.21-.99-.36-.5-.66-.67-.67-.24-1.1-.24h-1.9v7.74h-.83v-8.48Z"/><path class="cls-4" d="M203.41,315.42h-.83v-8.48h.83v8.48Z"/><path class="cls-4" d="M206.6,306.93h6.21v.74h-2.68v7.74h-.84v-7.74h-2.68v-.74Z"/><path class="cls-4" d="M214.22,315.42l3.08-8.48h.9l3.09,8.48h-.88l-2.63-7.41h-.06l-2.63,7.41h-.87ZM219.87,312.15v.74h-4.24v-.74h4.24Z"/><path class="cls-4" d="M224.2,306.93h.83v7.73h4.03v.75h-4.86v-8.48Z"/></g></svg>